# xmcd
# 
# Track frame offsets:
#     150
#     15752
#     32495
#     50685
#     70685
#     89835
#     110330
#     131220
#     149970
#     169202
#     181650
#     195970
#     213055
#     227732
# 
# Disc length: 3258
# 
# Revision: 2
# Processed by: cddbd v1.5.2PL0 Copyright (c) Steve Scherf et al.
# Submitted via: BonkEnc v1.0
# 
DISCID=be0cb80e
DTITLE=Zezé di Camargo and Luciano - Dois corações e uma história · Vol. 6
DYEAR=2004
DGENRE=Brega
TTITLE0=Pra sempre em mim (You needed me)
TTITLE1=A ferro e fogo
TTITLE2=Fala sério
TTITLE3=Sufocado (Drowning)
TTITLE4=Nem mais uma dúvida
TTITLE5=Preciso de um tempo
TTITLE6=Passou da conta
TTITLE7=Conflito
TTITLE8=Bella senz'anima
TTITLE9=Só amor pra ela
TTITLE10=Só amando é que se vive
TTITLE11=Menino cantador
TTITLE12=Coração de vidro
TTITLE13=Balançou
EXTD=by Toshiro - 2004
EXTT0=
EXTT1=
EXTT2=
EXTT3=
EXTT4=
EXTT5=
EXTT6=
EXTT7=
EXTT8=
EXTT9=
EXTT10=
EXTT11=
EXTT12=
EXTT13=
PLAYORDER=
